<?xml version="1.0" encoding="UTF-8"?>
<svg width="20px" height="15px" viewBox="0 0 20 15" version="1.1" xmlns="http://www.w3.org/2000/svg" xmlns:xlink="http://www.w3.org/1999/xlink">
    <!-- Generator: Sketch 47.1 (45422) - http://www.bohemiancoding.com/sketch -->
    <title>Fill 1</title>
    <desc>Created with Sketch.</desc>
    <defs></defs>
    <g id="Desktop" stroke="none" stroke-width="1" fill="none" fill-rule="evenodd">
        <g id="1.-Dashboard" transform="translate(-1282.000000, -978.000000)" fill="#FFFFFF">
            <path d="M1301.21813,985.462908 C1301.22496,985.411365 1301.25042,985.365411 1301.25104,985.313246 C1301.25104,985.310762 1301.2498,985.308278 1301.2498,985.306415 C1301.2498,985.30331 1301.25104,985.301447 1301.25104,985.298963 C1301.25104,984.938162 1301.10014,984.61462 1300.85981,984.381124 C1300.85608,984.377398 1300.85484,984.372429 1300.85111,984.368703 L1294.51442,978.352443 C1294.00023,977.865578 1293.18734,977.884829 1292.69985,978.399639 C1292.21174,978.913828 1292.23286,979.726098 1292.74705,980.213584 L1296.75188,984.015975 L1283.28361,984.015975 C1282.57443,984.015975 1282,984.590401 1282,985.298963 C1282,986.008147 1282.57443,986.582573 1283.28361,986.582573 L1296.64756,986.582573 L1292.04532,990.766879 C1291.52057,991.243187 1291.48269,992.054836 1291.95962,992.579582 C1292.21237,992.857791 1292.56075,993 1292.90913,993 C1293.21715,993 1293.52578,992.889462 1293.77232,992.665901 L1300.83124,986.249095 C1300.83869,986.241643 1300.84118,986.231707 1300.84801,986.225497 C1300.93619,986.141662 1300.99829,986.038576 1301.05977,985.933006 C1301.08399,985.890157 1301.12125,985.857244 1301.14112,985.81191 C1301.1877,985.704477 1301.20198,985.583382 1301.21813,985.462908" id="Fill-1"></path>
        </g>
    </g>
</svg>