<?xml version="1.0" encoding="UTF-8"?>
<svg width="26px" height="20px" viewBox="0 0 26 20" version="1.1" xmlns="http://www.w3.org/2000/svg" xmlns:xlink="http://www.w3.org/1999/xlink">
    <!-- Generator: Sketch 47.1 (45422) - http://www.bohemiancoding.com/sketch -->
    <title>Fill 1</title>
    <desc>Created with Sketch.</desc>
    <defs></defs>
    <g id="Desktop" stroke="none" stroke-width="1" fill="none" fill-rule="evenodd">
        <g id="1.-Dashboard" transform="translate(-1377.000000, -978.000000)" fill="#003D86">
            <path d="M1402.62417,987.950544 C1402.63328,987.881819 1402.66722,987.820547 1402.66805,987.750995 C1402.66805,987.747683 1402.6664,987.744371 1402.6664,987.741887 C1402.6664,987.737747 1402.66805,987.735263 1402.66805,987.731951 C1402.66805,987.250882 1402.46685,986.819493 1402.14641,986.508165 C1402.14144,986.503197 1402.13979,986.496573 1402.13482,986.491605 L1393.68589,978.469924 C1393.0003,977.820771 1391.91645,977.846439 1391.26647,978.532852 C1390.61566,979.218438 1390.64381,980.301464 1391.3294,980.951445 L1396.66918,986.0213 L1378.71148,986.0213 C1377.7659,986.0213 1377,986.787201 1377,987.731951 C1377,988.677529 1377.7659,989.443431 1378.71148,989.443431 L1396.53008,989.443431 L1390.39376,995.022506 C1389.69409,995.657583 1389.64359,996.739781 1390.27949,997.439443 C1390.61649,997.810388 1391.081,998 1391.54551,998 C1391.95619,998 1392.36771,997.852616 1392.69643,997.554535 L1402.10832,988.998794 C1402.11826,988.988858 1402.12157,988.97561 1402.13068,988.96733 C1402.24826,988.855549 1402.33106,988.718101 1402.41303,988.577341 C1402.44532,988.520209 1402.495,988.476325 1402.5215,988.415881 C1402.5836,988.272636 1402.60264,988.111176 1402.62417,987.950544" id="Fill-1"></path>
        </g>
    </g>
</svg>