<?xml version="1.0" encoding="UTF-8"?>
<svg width="31px" height="28px" viewBox="0 0 31 28" version="1.1" xmlns="http://www.w3.org/2000/svg" xmlns:xlink="http://www.w3.org/1999/xlink">
    <!-- Generator: Sketch 47.1 (45422) - http://www.bohemiancoding.com/sketch -->
    <title>Page 1</title>
    <desc>Created with Sketch.</desc>
    <defs>
        <polygon id="path-1" points="0 27.9448 0 -0.0002 30.996 -0.0002 30.996 27.9448"></polygon>
    </defs>
    <g id="Desktop" stroke="none" stroke-width="1" fill="none" fill-rule="evenodd">
        <g id="1.-Dashboard-Copy" transform="translate(-1323.000000, -30.000000)">
            <g id="Group-9">
                <g id="Group-8" transform="translate(1187.000000, 28.000000)">
                    <g id="Group-7" transform="translate(68.000000, 0.000000)">
                        <g id="Page-1" transform="translate(68.000000, 2.000000)">
                            <mask id="mask-2" fill="white">
                                <use xlink:href="#path-1"></use>
                            </mask>
                            <g id="Clip-2"></g>
                            <path d="M29.2295,27.9448 C28.4655,27.9448 27.7625,27.4468 27.5365,26.6758 C27.2795,25.8078 26.5835,25.2128 26.2665,24.9768 C25.0935,24.6728 21.2215,23.6418 19.6515,22.9368 C18.4715,22.4018 17.5975,21.3118 17.1225,19.7818 C16.8785,19.0018 17.2035,18.1568 17.9065,17.7398 C20.1295,16.4158 21.5115,13.3238 21.5115,9.6698 C21.5115,5.3088 19.7775,3.5308 15.5225,3.5308 C11.2695,3.5308 9.5345,5.3088 9.5345,9.6698 C9.5345,13.3098 10.9095,16.3888 13.1235,17.7068 C13.8335,18.1288 14.1565,18.9868 13.8995,19.7718 C13.3875,21.3408 12.5355,22.4038 11.3645,22.9348 C9.7915,23.6418 5.9105,24.6728 4.7335,24.9768 C4.4215,25.2088 3.7235,25.8098 3.4565,26.6918 C3.1725,27.6268 2.1835,28.1478 1.2535,27.8678 C0.3195,27.5848 -0.2065,26.5978 0.0765,25.6648 C0.8245,23.2028 2.8825,21.9498 3.1145,21.8158 C3.2555,21.7338 3.4065,21.6728 3.5635,21.6328 C4.9065,21.2898 8.6605,20.2778 9.9125,19.7148 C9.9145,19.7148 9.9165,19.7148 9.9175,19.7128 C7.4405,17.5058 6.0035,13.8818 6.0035,9.6698 C6.0035,3.3438 9.2945,-0.0002 15.5225,-0.0002 C21.7505,-0.0002 25.0435,3.3438 25.0435,9.6698 C25.0435,13.8858 23.6075,17.5128 21.1295,19.7298 C22.4045,20.2938 26.1055,21.2938 27.4345,21.6328 C27.5875,21.6728 27.7375,21.7318 27.8755,21.8118 C28.1115,21.9468 30.1955,23.2028 30.9235,25.6798 C31.1995,26.6148 30.6655,27.5958 29.7275,27.8718 C29.5615,27.9218 29.3945,27.9448 29.2295,27.9448" id="Fill-1" fill="#003D86" mask="url(#mask-2)"></path>
                        </g>
                    </g>
                </g>
            </g>
        </g>
    </g>
</svg>