<?xml version="1.0" encoding="UTF-8"?>
<svg width="28px" height="32px" viewBox="0 0 28 32" version="1.1" xmlns="http://www.w3.org/2000/svg" xmlns:xlink="http://www.w3.org/1999/xlink">
    <!-- Generator: Sketch 47.1 (45422) - http://www.bohemiancoding.com/sketch -->
    <title>Fill 1</title>
    <desc>Created with Sketch.</desc>
    <defs></defs>
    <g id="Desktop" stroke="none" stroke-width="1" fill="none" fill-rule="evenodd">
        <g id="1.-Dashboard-Copy" transform="translate(-1187.000000, -28.000000)" fill="#003D86">
            <g id="Group-9">
                <g id="Group-8" transform="translate(1187.000000, 28.000000)">
                    <path d="M24.4385,25.2989 C24.4385,26.6279 23.3585,27.7079 22.0285,27.7079 L5.7365,27.7079 C4.4065,27.7079 3.3255,26.6279 3.3255,25.2989 L3.3255,12.4359 L4.5825,12.4359 L4.5825,15.4809 C4.5825,16.3989 5.3265,17.1429 6.2455,17.1429 C7.1635,17.1429 7.9075,16.3989 7.9075,15.4809 L7.9075,12.4359 L19.8565,12.4359 L19.8565,15.3819 C19.8565,16.2999 20.6015,17.0439 21.5195,17.0439 C22.4385,17.0439 23.1835,16.2999 23.1835,15.3819 L23.1835,12.4359 L24.4385,12.4359 L24.4385,25.2989 Z M14.1065,3.3249 C15.7905,3.3249 17.0715,3.7899 18.0195,4.7459 C19.5415,6.2749 19.7335,8.3109 19.7785,9.1109 L8.0645,9.1109 C8.1335,7.9519 8.6055,3.3249 14.1065,3.3249 L14.1065,3.3249 Z M26.1025,9.1109 L23.1015,9.1109 C23.0725,8.1459 22.8725,4.9279 20.4015,2.4239 C18.8155,0.8159 16.6975,-0.0001 14.1065,-0.0001 C7.0055,-0.0001 5.0055,5.6439 4.7825,9.1109 L1.6625,9.1109 C0.7445,9.1109 0.0005,9.8549 0.0005,10.7729 L0.0005,25.2989 C0.0005,28.4609 2.5735,31.0349 5.7365,31.0349 L22.0285,31.0349 C25.1915,31.0349 27.7655,28.4609 27.7655,25.2989 L27.7655,10.7729 C27.7655,9.8549 27.0205,9.1109 26.1025,9.1109 L26.1025,9.1109 Z" id="Fill-1"></path>
                </g>
            </g>
        </g>
    </g>
</svg>