<?xml version="1.0" encoding="UTF-8"?>
<svg width="30px" height="35px" viewBox="0 0 30 35" version="1.1" xmlns="http://www.w3.org/2000/svg" xmlns:xlink="http://www.w3.org/1999/xlink">
    <!-- Generator: Sketch 47.1 (45422) - http://www.bohemiancoding.com/sketch -->
    <title>Page 1</title>
    <desc>Created with Sketch.</desc>
    <defs></defs>
    <g id="Desktop" stroke="none" stroke-width="1" fill="none" fill-rule="evenodd">
        <g id="1.-Dashboard-Copy" transform="translate(-1254.000000, -27.000000)" stroke-width="1.2" stroke="#003D86" fill="#003D86">
            <g id="Group-9">
                <g id="Group-8" transform="translate(1187.000000, 28.000000)">
                    <g id="Group-7" transform="translate(68.000000, 0.000000)">
                        <path d="M13.8666976,33 C13.7425362,33 13.6211096,32.9595245 13.5374237,32.9190489 C13.0035843,32.7139365 0,27.4214875 0,15.6491251 L0,5.26933962 C0,5.02375161 0.0814980255,4.7781636 0.286610506,4.61352665 C0.451247457,4.4488897 0.696835467,4.32746311 0.942423476,4.32746311 C0.942423476,4.32746311 0.942423476,4.32746311 0.942423476,4.32746311 C1.68192234,4.32746311 7.87577228,4.20330169 13.3306703,0.184191007 C13.6593973,-0.0613970025 14.1100977,-0.0613970025 14.4371838,0.184191007 C19.8554351,4.20330169 26.049285,4.32746311 26.7483083,4.32746311 C26.9938963,4.32746311 27.2821478,4.40841417 27.4445968,4.61352665 C27.6092338,4.7781636 27.7312073,5.02375161 27.7312073,5.26933962 L27.7312073,15.6896006 C27.7312073,27.461963 14.7276231,32.754412 14.1937836,32.9595245 C14.1122856,32.9595245 13.990859,33 13.8666976,33 Z M1.84601232,6.17347543 L1.84601232,15.6491251 C1.84601232,25.1247747 11.8560483,30.1306131 13.8666976,31.0325611 C15.8773469,30.1306131 25.8873829,25.1247747 25.8873829,15.6491251 L25.8873829,6.17347543 C23.7952356,6.04931401 18.6269481,5.39350104 13.8666976,2.11170136 C9.10863503,5.39350104 3.94034749,6.04931401 1.84601232,6.17347543 Z M16.0824594,24.5094372 L11.6509359,24.5094372 C11.1170964,24.5094372 10.7068715,24.0992123 10.7068715,23.5648259 L10.7068715,19.1765128 L6.27753583,19.1765128 C5.74314945,19.1765128 5.33292449,18.7662878 5.33292449,18.2319014 L5.33292449,13.8031127 C5.33292449,13.2687264 5.74314945,12.8585014 6.27753583,12.8585014 L10.7090593,12.8585014 L10.7090593,8.42971272 C10.7090593,7.89532634 11.1192843,7.48510138 11.6531237,7.48510138 L16.0846472,7.48510138 C16.6184866,7.48510138 17.0287116,7.89532634 17.0287116,8.42971272 L17.0287116,12.8606893 L21.4602351,12.8606893 C21.9940745,12.8606893 22.4042995,13.2709142 22.4042995,13.8053006 L22.4042995,18.2362771 C22.4042995,18.7706635 21.9940745,19.1808885 21.4602351,19.1808885 L17.0243359,19.1808885 L17.0243359,23.611865 C17.0243359,24.0992123 16.6141109,24.5094372 16.0824594,24.5094372 Z M12.5955472,22.6634249 L15.1805114,22.6634249 L15.1805114,18.2319014 C15.1805114,17.698062 15.5907364,17.287837 16.1251228,17.287837 L20.5560993,17.287837 L20.5560993,14.7023259 L16.0824594,14.7023259 C15.548073,14.7023259 15.137848,14.2921009 15.137848,13.7582615 L15.137848,9.37158923 L12.5528838,9.37158923 L12.5528838,13.8031127 C12.5528838,14.3369522 12.1426588,14.7471771 11.6082725,14.7471771 L7.22214718,14.7471771 L7.22214718,17.3326883 L11.6531237,17.3326883 C12.1875101,17.3326883 12.5977351,17.7429133 12.5977351,18.2767527 L12.5977351,22.6634249 L12.5955472,22.6634249 Z" id="Page-1"></path>
                    </g>
                </g>
            </g>
        </g>
    </g>
</svg>